%TF.GenerationSoftware,KiCad,Pcbnew,(6.0.7)*%
%TF.CreationDate,2023-04-14T11:36:13-05:00*%
%TF.ProjectId,ATtiny_PCB,41547469-6e79-45f5-9043-422e6b696361,rev?*%
%TF.SameCoordinates,Original*%
%TF.FileFunction,Copper,L2,Bot*%
%TF.FilePolarity,Positive*%
%FSLAX46Y46*%
G04 Gerber Fmt 4.6, Leading zero omitted, Abs format (unit mm)*
G04 Created by KiCad (PCBNEW (6.0.7)) date 2023-04-14 11:36:13*
%MOMM*%
%LPD*%
G01*
G04 APERTURE LIST*
G04 Aperture macros list*
%AMRoundRect*
0 Rectangle with rounded corners*
0 $1 Rounding radius*
0 $2 $3 $4 $5 $6 $7 $8 $9 X,Y pos of 4 corners*
0 Add a 4 corners polygon primitive as box body*
4,1,4,$2,$3,$4,$5,$6,$7,$8,$9,$2,$3,0*
0 Add four circle primitives for the rounded corners*
1,1,$1+$1,$2,$3*
1,1,$1+$1,$4,$5*
1,1,$1+$1,$6,$7*
1,1,$1+$1,$8,$9*
0 Add four rect primitives between the rounded corners*
20,1,$1+$1,$2,$3,$4,$5,0*
20,1,$1+$1,$4,$5,$6,$7,0*
20,1,$1+$1,$6,$7,$8,$9,0*
20,1,$1+$1,$8,$9,$2,$3,0*%
G04 Aperture macros list end*
%TA.AperFunction,ComponentPad*%
%ADD10C,2.000000*%
%TD*%
%TA.AperFunction,ComponentPad*%
%ADD11R,1.600000X1.600000*%
%TD*%
%TA.AperFunction,ComponentPad*%
%ADD12O,1.600000X1.600000*%
%TD*%
%TA.AperFunction,ComponentPad*%
%ADD13O,1.700000X1.700000*%
%TD*%
%TA.AperFunction,ComponentPad*%
%ADD14R,1.700000X1.700000*%
%TD*%
%TA.AperFunction,SMDPad,CuDef*%
%ADD15RoundRect,0.250000X-0.312500X-0.625000X0.312500X-0.625000X0.312500X0.625000X-0.312500X0.625000X0*%
%TD*%
%TA.AperFunction,SMDPad,CuDef*%
%ADD16RoundRect,0.250000X0.325000X0.650000X-0.325000X0.650000X-0.325000X-0.650000X0.325000X-0.650000X0*%
%TD*%
%TA.AperFunction,Conductor*%
%ADD17C,0.250000*%
%TD*%
G04 APERTURE END LIST*
D10*
%TO.P,SW1,2,2*%
%TO.N,Reset*%
X172720000Y-97800000D03*
%TO.P,SW1,1,1*%
%TO.N,GND*%
X172720000Y-104300000D03*
%TD*%
D11*
%TO.P,U1,1,~{RESET}/PB5*%
%TO.N,Reset*%
X175260000Y-87640000D03*
D12*
%TO.P,U1,2,PB3*%
%TO.N,ExtCLKI*%
X175260000Y-90180000D03*
%TO.P,U1,3,PB4*%
%TO.N,PB4*%
X175260000Y-92720000D03*
%TO.P,U1,4,GND*%
%TO.N,GND*%
X175260000Y-95260000D03*
%TO.P,U1,5,PB0*%
%TO.N,MOSI*%
X182880000Y-95260000D03*
%TO.P,U1,6,PB1*%
%TO.N,MISO*%
X182880000Y-92720000D03*
%TO.P,U1,7,PB2*%
%TO.N,SCK*%
X182880000Y-90180000D03*
%TO.P,U1,8,VCC*%
%TO.N,VCC*%
X182880000Y-87640000D03*
%TD*%
D13*
%TO.P,J3,6,Pin_6*%
%TO.N,GND*%
X180340000Y-102880000D03*
%TO.P,J3,5,Pin_5*%
%TO.N,Reset*%
X180340000Y-100340000D03*
%TO.P,J3,4,Pin_4*%
%TO.N,MOSI*%
X182880000Y-102880000D03*
%TO.P,J3,3,Pin_3*%
%TO.N,SCK*%
X182880000Y-100340000D03*
%TO.P,J3,2,Pin_2*%
%TO.N,VCC*%
X185420000Y-102880000D03*
D14*
%TO.P,J3,1,Pin_1*%
%TO.N,MISO*%
X185420000Y-100340000D03*
%TD*%
%TO.P,J1,1,Pin_1*%
%TO.N,Reset*%
X172720000Y-87640000D03*
D13*
%TO.P,J1,2,Pin_2*%
%TO.N,ExtCLKI*%
X172720000Y-90180000D03*
%TO.P,J1,3,Pin_3*%
%TO.N,PB4*%
X172720000Y-92720000D03*
%TO.P,J1,4,Pin_4*%
%TO.N,GND*%
X172720000Y-95260000D03*
%TD*%
D14*
%TO.P,J2,1,Pin_1*%
%TO.N,VCC*%
X185420000Y-87640000D03*
D13*
%TO.P,J2,2,Pin_2*%
%TO.N,SCK*%
X185420000Y-90180000D03*
%TO.P,J2,3,Pin_3*%
%TO.N,MISO*%
X185420000Y-92720000D03*
%TO.P,J2,4,Pin_4*%
%TO.N,MOSI*%
X185420000Y-95260000D03*
%TD*%
D15*
%TO.P,10K,1*%
%TO.N,Reset*%
X177607500Y-87640000D03*
%TO.P,10K,2*%
%TO.N,VCC*%
X180532500Y-87640000D03*
%TD*%
D16*
%TO.P,106,1*%
%TO.N,VCC*%
X180545000Y-95250000D03*
%TO.P,106,2*%
%TO.N,GND*%
X177595000Y-95250000D03*
%TD*%
%TO.P,104,1*%
%TO.N,VCC*%
X180545000Y-92710000D03*
%TO.P,104,2*%
%TO.N,GND*%
X177595000Y-92710000D03*
%TD*%
D17*
%TO.N,Reset*%
X177607500Y-87640000D02*
X177510000Y-87640000D01*
X177510000Y-87640000D02*
X176385000Y-88765000D01*
X175260000Y-87640000D02*
X177607500Y-87640000D01*
%TO.N,VCC*%
X180545000Y-98883299D02*
X181705000Y-100043299D01*
X182393299Y-104055000D02*
X184245000Y-104055000D01*
X184245000Y-104055000D02*
X185420000Y-102880000D01*
X180545000Y-93990000D02*
X180545000Y-98883299D01*
X181705000Y-100043299D02*
X181705000Y-103366701D01*
X181705000Y-103366701D02*
X182393299Y-104055000D01*
X180545000Y-91450000D02*
X180545000Y-93990000D01*
X180532500Y-87640000D02*
X180532500Y-91437500D01*
X180532500Y-91437500D02*
X180545000Y-91450000D01*
X182880000Y-87640000D02*
X180532500Y-87640000D01*
%TO.N,MISO*%
X186595000Y-99165000D02*
X185420000Y-100340000D01*
X186595000Y-93895000D02*
X186595000Y-99165000D01*
X185420000Y-92720000D02*
X186595000Y-93895000D01*
%TO.N,MOSI*%
X184099200Y-101660800D02*
X182880000Y-102880000D01*
X184099200Y-99695000D02*
X184099200Y-101660800D01*
X182880000Y-98475800D02*
X184099200Y-99695000D01*
X182880000Y-95260000D02*
X182880000Y-98475800D01*
%TO.N,SCK*%
X181755000Y-99215000D02*
X182880000Y-100340000D01*
X181755000Y-91305000D02*
X181755000Y-99215000D01*
X182880000Y-90180000D02*
X181755000Y-91305000D01*
%TO.N,Reset*%
X174970000Y-97800000D02*
X176385000Y-96385000D01*
X172720000Y-97800000D02*
X174970000Y-97800000D01*
X176385000Y-96385000D02*
X180340000Y-100340000D01*
X176385000Y-88765000D02*
X176385000Y-96385000D01*
X175260000Y-87640000D02*
X176385000Y-88765000D01*
%TO.N,ExtCLKI*%
X175260000Y-90180000D02*
X172720000Y-90180000D01*
%TO.N,PB4*%
X175260000Y-92720000D02*
X172720000Y-92720000D01*
%TO.N,GND*%
X175260000Y-95260000D02*
X172720000Y-95260000D01*
%TO.N,MOSI*%
X182880000Y-95260000D02*
X185420000Y-95260000D01*
%TO.N,MISO*%
X182880000Y-92720000D02*
X185420000Y-92720000D01*
%TO.N,SCK*%
X182880000Y-90180000D02*
X185420000Y-90180000D01*
%TO.N,VCC*%
X182880000Y-87640000D02*
X185420000Y-87640000D01*
%TO.N,Reset*%
X172720000Y-87640000D02*
X175260000Y-87640000D01*
%TD*%
%TA.AperFunction,Conductor*%
%TO.N,GND*%
G36*
X186660018Y-85600000D02*
G01*
X186674852Y-85602310D01*
X186674855Y-85602310D01*
X186683724Y-85603691D01*
X186693659Y-85602392D01*
X186694746Y-85602250D01*
X186723431Y-85601793D01*
X186796741Y-85609013D01*
X186826212Y-85611916D01*
X186850432Y-85616733D01*
X186969546Y-85652866D01*
X186992355Y-85662315D01*
X187102124Y-85720987D01*
X187122655Y-85734705D01*
X187218876Y-85813671D01*
X187236329Y-85831124D01*
X187315295Y-85927345D01*
X187329013Y-85947876D01*
X187387685Y-86057645D01*
X187397134Y-86080454D01*
X187433267Y-86199568D01*
X187438084Y-86223789D01*
X187447541Y-86319809D01*
X187447091Y-86335868D01*
X187447800Y-86335877D01*
X187447690Y-86344853D01*
X187446309Y-86353724D01*
X187447473Y-86362626D01*
X187447473Y-86362628D01*
X187450436Y-86385283D01*
X187451500Y-86401621D01*
X187451500Y-93676873D01*
X187431498Y-93744994D01*
X187377842Y-93791487D01*
X187307568Y-93801591D01*
X187242988Y-93772097D01*
X187208349Y-93723257D01*
X187197194Y-93695083D01*
X187193354Y-93683865D01*
X187183230Y-93649022D01*
X187181018Y-93641407D01*
X187170707Y-93623972D01*
X187162012Y-93606224D01*
X187154552Y-93587383D01*
X187137782Y-93564300D01*
X187128564Y-93551613D01*
X187122048Y-93541693D01*
X187103580Y-93510465D01*
X187103578Y-93510462D01*
X187099542Y-93503638D01*
X187085221Y-93489317D01*
X187072380Y-93474283D01*
X187065131Y-93464306D01*
X187060472Y-93457893D01*
X187054368Y-93452843D01*
X187054363Y-93452838D01*
X187026402Y-93429707D01*
X187017622Y-93421717D01*
X186771218Y-93175313D01*
X186737192Y-93113001D01*
X186739755Y-93049589D01*
X186750865Y-93013022D01*
X186752370Y-93008069D01*
X186781529Y-92786590D01*
X186783156Y-92720000D01*
X186764852Y-92497361D01*
X186710431Y-92280702D01*
X186621354Y-92075840D01*
X186510923Y-91905139D01*
X186502822Y-91892617D01*
X186502820Y-91892614D01*
X186500014Y-91888277D01*
X186349670Y-91723051D01*
X186345619Y-91719852D01*
X186345615Y-91719848D01*
X186178414Y-91587800D01*
X186178410Y-91587798D01*
X186174359Y-91584598D01*
X186133053Y-91561796D01*
X186083084Y-91511364D01*
X186068312Y-91441921D01*
X186093428Y-91375516D01*
X186120780Y-91348909D01*
X186169207Y-91314366D01*
X186299860Y-91221173D01*
X186331788Y-91189357D01*
X186454435Y-91067137D01*
X186458096Y-91063489D01*
X186489498Y-91019789D01*
X186585435Y-90886277D01*
X186588453Y-90882077D01*
X186592145Y-90874608D01*
X186685136Y-90686453D01*
X186685137Y-90686451D01*
X186687430Y-90681811D01*
X186752370Y-90468069D01*
X186781529Y-90246590D01*
X186783156Y-90180000D01*
X186764852Y-89957361D01*
X186710431Y-89740702D01*
X186621354Y-89535840D01*
X186500014Y-89348277D01*
X186485024Y-89331803D01*
X186352798Y-89186488D01*
X186321746Y-89122642D01*
X186330141Y-89052143D01*
X186375317Y-88997375D01*
X186401761Y-88983706D01*
X186508297Y-88943767D01*
X186516705Y-88940615D01*
X186633261Y-88853261D01*
X186720615Y-88736705D01*
X186771745Y-88600316D01*
X186778500Y-88538134D01*
X186778500Y-86741866D01*
X186771745Y-86679684D01*
X186720615Y-86543295D01*
X186633261Y-86426739D01*
X186516705Y-86339385D01*
X186380316Y-86288255D01*
X186318134Y-86281500D01*
X184521866Y-86281500D01*
X184459684Y-86288255D01*
X184323295Y-86339385D01*
X184206739Y-86426739D01*
X184119385Y-86543295D01*
X184068255Y-86679684D01*
X184067402Y-86687540D01*
X184065575Y-86695222D01*
X184064211Y-86694898D01*
X184040210Y-86752664D01*
X183981849Y-86793093D01*
X183910894Y-86795551D01*
X183853091Y-86762593D01*
X183724300Y-86633802D01*
X183719792Y-86630645D01*
X183719789Y-86630643D01*
X183607051Y-86551703D01*
X183536749Y-86502477D01*
X183531767Y-86500154D01*
X183531762Y-86500151D01*
X183334225Y-86408039D01*
X183334224Y-86408039D01*
X183329243Y-86405716D01*
X183323935Y-86404294D01*
X183323933Y-86404293D01*
X183113402Y-86347881D01*
X183113400Y-86347881D01*
X183108087Y-86346457D01*
X182880000Y-86326502D01*
X182651913Y-86346457D01*
X182646600Y-86347881D01*
X182646598Y-86347881D01*
X182436067Y-86404293D01*
X182436065Y-86404294D01*
X182430757Y-86405716D01*
X182425776Y-86408039D01*
X182425775Y-86408039D01*
X182228238Y-86500151D01*
X182228233Y-86500154D01*
X182223251Y-86502477D01*
X182152949Y-86551703D01*
X182040211Y-86630643D01*
X182040208Y-86630645D01*
X182035700Y-86633802D01*
X181873802Y-86795700D01*
X181870645Y-86800208D01*
X181870643Y-86800211D01*
X181812568Y-86883151D01*
X181757111Y-86927479D01*
X181686491Y-86934788D01*
X181623131Y-86902757D01*
X181589831Y-86850756D01*
X181538868Y-86698002D01*
X181536550Y-86691054D01*
X181443478Y-86540652D01*
X181318303Y-86415695D01*
X181282168Y-86393421D01*
X181173968Y-86326725D01*
X181173966Y-86326724D01*
X181167738Y-86322885D01*
X181063331Y-86288255D01*
X181006389Y-86269368D01*
X181006387Y-86269368D01*
X180999861Y-86267203D01*
X180993025Y-86266503D01*
X180993022Y-86266502D01*
X180949969Y-86262091D01*
X180895400Y-86256500D01*
X180169600Y-86256500D01*
X180166354Y-86256837D01*
X180166350Y-86256837D01*
X180070692Y-86266762D01*
X180070688Y-86266763D01*
X180063834Y-86267474D01*
X180057298Y-86269655D01*
X180057296Y-86269655D01*
X180001546Y-86288255D01*
X179896054Y-86323450D01*
X179745652Y-86416522D01*
X179740479Y-86421704D01*
X179690831Y-86471439D01*
X179620695Y-86541697D01*
X179616855Y-86547927D01*
X179616854Y-86547928D01*
X179565868Y-86630643D01*
X179527885Y-86692262D01*
X179472203Y-86860139D01*
X179461500Y-86964600D01*
X179461500Y-88315400D01*
X179461837Y-88318646D01*
X179461837Y-88318650D01*
X179467264Y-88370951D01*
X179472474Y-88421166D01*
X179474655Y-88427702D01*
X179474655Y-88427704D01*
X179493537Y-88484300D01*
X179528450Y-88588946D01*
X179621522Y-88739348D01*
X179746697Y-88864305D01*
X179752927Y-88868145D01*
X179752928Y-88868146D01*
X179839116Y-88921273D01*
X179886609Y-88974045D01*
X179899000Y-89028533D01*
X179899000Y-91296425D01*
X179878998Y-91364546D01*
X179839304Y-91403568D01*
X179745652Y-91461522D01*
X179620695Y-91586697D01*
X179527885Y-91737262D01*
X179472203Y-91905139D01*
X179461500Y-92009600D01*
X179461500Y-93410400D01*
X179461837Y-93413646D01*
X179461837Y-93413650D01*
X179471618Y-93507914D01*
X179472474Y-93516166D01*
X179474655Y-93522702D01*
X179474655Y-93522704D01*
X179508441Y-93623972D01*
X179528450Y-93683946D01*
X179621522Y-93834348D01*
X179626704Y-93839521D01*
X179678109Y-93890837D01*
X179712188Y-93953120D01*
X179707185Y-94023940D01*
X179678265Y-94069027D01*
X179620695Y-94126697D01*
X179616855Y-94132927D01*
X179616854Y-94132928D01*
X179534063Y-94267240D01*
X179527885Y-94277262D01*
X179525581Y-94284209D01*
X179484944Y-94406727D01*
X179472203Y-94445139D01*
X179461500Y-94549600D01*
X179461500Y-95950400D01*
X179461837Y-95953646D01*
X179461837Y-95953650D01*
X179471618Y-96047914D01*
X179472474Y-96056166D01*
X179474655Y-96062702D01*
X179474655Y-96062704D01*
X179500098Y-96138965D01*
X179528450Y-96223946D01*
X179621522Y-96374348D01*
X179746697Y-96499305D01*
X179820825Y-96544998D01*
X179851616Y-96563978D01*
X179899109Y-96616750D01*
X179911500Y-96671238D01*
X179911500Y-98711406D01*
X179891498Y-98779527D01*
X179837842Y-98826020D01*
X179767568Y-98836124D01*
X179702988Y-98806630D01*
X179696405Y-98800501D01*
X178690974Y-97795070D01*
X177768997Y-96873092D01*
X177734972Y-96810782D01*
X177740037Y-96739967D01*
X177782584Y-96683131D01*
X177849104Y-96658320D01*
X177858093Y-96657999D01*
X177967095Y-96657999D01*
X177973614Y-96657662D01*
X178069206Y-96647743D01*
X178082600Y-96644851D01*
X178236784Y-96593412D01*
X178249962Y-96587239D01*
X178387807Y-96501937D01*
X178399208Y-96492901D01*
X178513739Y-96378171D01*
X178522751Y-96366760D01*
X178607816Y-96228757D01*
X178613963Y-96215576D01*
X178665138Y-96061290D01*
X178668005Y-96047914D01*
X178677672Y-95953562D01*
X178678000Y-95947146D01*
X178678000Y-95522115D01*
X178673525Y-95506876D01*
X178672135Y-95505671D01*
X178664452Y-95504000D01*
X177144500Y-95504000D01*
X177076379Y-95483998D01*
X177029886Y-95430342D01*
X177018500Y-95378000D01*
X177018500Y-95122000D01*
X177038502Y-95053879D01*
X177092158Y-95007386D01*
X177144500Y-94996000D01*
X177322885Y-94996000D01*
X177338124Y-94991525D01*
X177339329Y-94990135D01*
X177341000Y-94982452D01*
X177341000Y-94977885D01*
X177849000Y-94977885D01*
X177853475Y-94993124D01*
X177854865Y-94994329D01*
X177862548Y-94996000D01*
X178659884Y-94996000D01*
X178675123Y-94991525D01*
X178676328Y-94990135D01*
X178677999Y-94982452D01*
X178677999Y-94552905D01*
X178677662Y-94546386D01*
X178667743Y-94450794D01*
X178664851Y-94437400D01*
X178613412Y-94283216D01*
X178607239Y-94270038D01*
X178521937Y-94132193D01*
X178512901Y-94120792D01*
X178461183Y-94069164D01*
X178427104Y-94006881D01*
X178432107Y-93936061D01*
X178461029Y-93890972D01*
X178513739Y-93838171D01*
X178522751Y-93826760D01*
X178607816Y-93688757D01*
X178613963Y-93675576D01*
X178665138Y-93521290D01*
X178668005Y-93507914D01*
X178677672Y-93413562D01*
X178678000Y-93407146D01*
X178678000Y-92982115D01*
X178673525Y-92966876D01*
X178672135Y-92965671D01*
X178664452Y-92964000D01*
X177867115Y-92964000D01*
X177851876Y-92968475D01*
X177850671Y-92969865D01*
X177849000Y-92977548D01*
X177849000Y-94977885D01*
X177341000Y-94977885D01*
X177341000Y-92437885D01*
X177849000Y-92437885D01*
X177853475Y-92453124D01*
X177854865Y-92454329D01*
X177862548Y-92456000D01*
X178659884Y-92456000D01*
X178675123Y-92451525D01*
X178676328Y-92450135D01*
X178677999Y-92442452D01*
X178677999Y-92012905D01*
X178677662Y-92006386D01*
X178667743Y-91910794D01*
X178664851Y-91897400D01*
X178613412Y-91743216D01*
X178607239Y-91730038D01*
X178521937Y-91592193D01*
X178512901Y-91580792D01*
X178398171Y-91466261D01*
X178386760Y-91457249D01*
X178248757Y-91372184D01*
X178235576Y-91366037D01*
X178081290Y-91314862D01*
X178067914Y-91311995D01*
X177973562Y-91302328D01*
X177967145Y-91302000D01*
X177867115Y-91302000D01*
X177851876Y-91306475D01*
X177850671Y-91307865D01*
X177849000Y-91315548D01*
X177849000Y-92437885D01*
X177341000Y-92437885D01*
X177341000Y-91320116D01*
X177336525Y-91304877D01*
X177335135Y-91303672D01*
X177327452Y-91302001D01*
X177222905Y-91302001D01*
X177216388Y-91302338D01*
X177157504Y-91308448D01*
X177087682Y-91295583D01*
X177035900Y-91247012D01*
X177018500Y-91183121D01*
X177018500Y-89139904D01*
X177038502Y-89071783D01*
X177092158Y-89025290D01*
X177157342Y-89014560D01*
X177235842Y-89022603D01*
X177244600Y-89023500D01*
X177970400Y-89023500D01*
X177973646Y-89023163D01*
X177973650Y-89023163D01*
X178069308Y-89013238D01*
X178069312Y-89013237D01*
X178076166Y-89012526D01*
X178082702Y-89010345D01*
X178082704Y-89010345D01*
X178236998Y-88958868D01*
X178243946Y-88956550D01*
X178394348Y-88863478D01*
X178519305Y-88738303D01*
X178534678Y-88713364D01*
X178608275Y-88593968D01*
X178608276Y-88593966D01*
X178612115Y-88587738D01*
X178638564Y-88507995D01*
X178665632Y-88426389D01*
X178665632Y-88426387D01*
X178667797Y-88419861D01*
X178678500Y-88315400D01*
X178678500Y-86964600D01*
X178675407Y-86934788D01*
X178668238Y-86865692D01*
X178668237Y-86865688D01*
X178667526Y-86858834D01*
X178611550Y-86691054D01*
X178518478Y-86540652D01*
X178393303Y-86415695D01*
X178357168Y-86393421D01*
X178248968Y-86326725D01*
X178248966Y-86326724D01*
X178242738Y-86322885D01*
X178138331Y-86288255D01*
X178081389Y-86269368D01*
X178081387Y-86269368D01*
X178074861Y-86267203D01*
X178068025Y-86266503D01*
X178068022Y-86266502D01*
X178024969Y-86262091D01*
X177970400Y-86256500D01*
X177244600Y-86256500D01*
X177241354Y-86256837D01*
X177241350Y-86256837D01*
X177145692Y-86266762D01*
X177145688Y-86266763D01*
X177138834Y-86267474D01*
X177132298Y-86269655D01*
X177132296Y-86269655D01*
X177076546Y-86288255D01*
X176971054Y-86323450D01*
X176820652Y-86416522D01*
X176815479Y-86421704D01*
X176765831Y-86471439D01*
X176695695Y-86541697D01*
X176691824Y-86547977D01*
X176691795Y-86548003D01*
X176687317Y-86553673D01*
X176686347Y-86552907D01*
X176639057Y-86595471D01*
X176568986Y-86606898D01*
X176503860Y-86578629D01*
X176483736Y-86557430D01*
X176428643Y-86483920D01*
X176428642Y-86483919D01*
X176423261Y-86476739D01*
X176306705Y-86389385D01*
X176170316Y-86338255D01*
X176108134Y-86331500D01*
X174411866Y-86331500D01*
X174349684Y-86338255D01*
X174213295Y-86389385D01*
X174171290Y-86420866D01*
X174116880Y-86461644D01*
X174050374Y-86486492D01*
X173980991Y-86471439D01*
X173940490Y-86436385D01*
X173938641Y-86433918D01*
X173933261Y-86426739D01*
X173816705Y-86339385D01*
X173680316Y-86288255D01*
X173618134Y-86281500D01*
X171821866Y-86281500D01*
X171759684Y-86288255D01*
X171623295Y-86339385D01*
X171506739Y-86426739D01*
X171419385Y-86543295D01*
X171368255Y-86679684D01*
X171361500Y-86741866D01*
X171361500Y-88538134D01*
X171368255Y-88600316D01*
X171419385Y-88736705D01*
X171506739Y-88853261D01*
X171623295Y-88940615D01*
X171631704Y-88943767D01*
X171631705Y-88943768D01*
X171740451Y-88984535D01*
X171797216Y-89027176D01*
X171821916Y-89093738D01*
X171806709Y-89163087D01*
X171787316Y-89189568D01*
X171660629Y-89322138D01*
X171657715Y-89326410D01*
X171657714Y-89326411D01*
X171648300Y-89340211D01*
X171534743Y-89506680D01*
X171440688Y-89709305D01*
X171380989Y-89924570D01*
X171357251Y-90146695D01*
X171357548Y-90151848D01*
X171357548Y-90151851D01*
X171363011Y-90246590D01*
X171370110Y-90369715D01*
X171371247Y-90374761D01*
X171371248Y-90374767D01*
X171391119Y-90462939D01*
X171419222Y-90587639D01*
X171457461Y-90681811D01*
X171493033Y-90769414D01*
X171503266Y-90794616D01*
X171505965Y-90799020D01*
X171617291Y-90980688D01*
X171619987Y-90985088D01*
X171766250Y-91153938D01*
X171938126Y-91296632D01*
X171978314Y-91320116D01*
X172011445Y-91339476D01*
X172060169Y-91391114D01*
X172073240Y-91460897D01*
X172046509Y-91526669D01*
X172006055Y-91560027D01*
X171993607Y-91566507D01*
X171989474Y-91569610D01*
X171989471Y-91569612D01*
X171968132Y-91585634D01*
X171814965Y-91700635D01*
X171660629Y-91862138D01*
X171657715Y-91866410D01*
X171657714Y-91866411D01*
X171648300Y-91880211D01*
X171534743Y-92046680D01*
X171440688Y-92249305D01*
X171380989Y-92464570D01*
X171357251Y-92686695D01*
X171357548Y-92691848D01*
X171357548Y-92691851D01*
X171363011Y-92786590D01*
X171370110Y-92909715D01*
X171371247Y-92914761D01*
X171371248Y-92914767D01*
X171385397Y-92977548D01*
X171419222Y-93127639D01*
X171503266Y-93334616D01*
X171505965Y-93339020D01*
X171617291Y-93520688D01*
X171619987Y-93525088D01*
X171766250Y-93693938D01*
X171938126Y-93836632D01*
X172005163Y-93875805D01*
X172011955Y-93879774D01*
X172060679Y-93931412D01*
X172073750Y-94001195D01*
X172047019Y-94066967D01*
X172006562Y-94100327D01*
X171998457Y-94104546D01*
X171989738Y-94110036D01*
X171819433Y-94237905D01*
X171811726Y-94244748D01*
X171664590Y-94398717D01*
X171658104Y-94406727D01*
X171538098Y-94582649D01*
X171533000Y-94591623D01*
X171443338Y-94784783D01*
X171439775Y-94794470D01*
X171384389Y-94994183D01*
X171385912Y-95002607D01*
X171398292Y-95006000D01*
X175625500Y-95006000D01*
X175693621Y-95026002D01*
X175740114Y-95079658D01*
X175751500Y-95132000D01*
X175751500Y-95388000D01*
X175731498Y-95456121D01*
X175677842Y-95502614D01*
X175625500Y-95514000D01*
X171403225Y-95514000D01*
X171389694Y-95517973D01*
X171388257Y-95527966D01*
X171418565Y-95662446D01*
X171421645Y-95672275D01*
X171501770Y-95869603D01*
X171506413Y-95878794D01*
X171617694Y-96060388D01*
X171623777Y-96068699D01*
X171763213Y-96229667D01*
X171770580Y-96236882D01*
X171895535Y-96340622D01*
X171935170Y-96399525D01*
X171936668Y-96470505D01*
X171899553Y-96531028D01*
X171880886Y-96544998D01*
X171834802Y-96573239D01*
X171830584Y-96575824D01*
X171650031Y-96730031D01*
X171495824Y-96910584D01*
X171493245Y-96914792D01*
X171493241Y-96914798D01*
X171375867Y-97106335D01*
X171371760Y-97113037D01*
X171369867Y-97117607D01*
X171369865Y-97117611D01*
X171282789Y-97327833D01*
X171280895Y-97332406D01*
X171225465Y-97563289D01*
X171206835Y-97800000D01*
X171225465Y-98036711D01*
X171280895Y-98267594D01*
X171282788Y-98272165D01*
X171282789Y-98272167D01*
X171354807Y-98446034D01*
X171371760Y-98486963D01*
X171374346Y-98491183D01*
X171493241Y-98685202D01*
X171493245Y-98685208D01*
X171495824Y-98689416D01*
X171650031Y-98869969D01*
X171830584Y-99024176D01*
X171834792Y-99026755D01*
X171834798Y-99026759D01*
X172011635Y-99135125D01*
X172033037Y-99148240D01*
X172037607Y-99150133D01*
X172037611Y-99150135D01*
X172193868Y-99214858D01*
X172252406Y-99239105D01*
X172332609Y-99258360D01*
X172478476Y-99293380D01*
X172478482Y-99293381D01*
X172483289Y-99294535D01*
X172720000Y-99313165D01*
X172956711Y-99294535D01*
X172961518Y-99293381D01*
X172961524Y-99293380D01*
X173107391Y-99258360D01*
X173187594Y-99239105D01*
X173246132Y-99214858D01*
X173402389Y-99150135D01*
X173402393Y-99150133D01*
X173406963Y-99148240D01*
X173428365Y-99135125D01*
X173605202Y-99026759D01*
X173605208Y-99026755D01*
X173609416Y-99024176D01*
X173789969Y-98869969D01*
X173944176Y-98689416D01*
X173946755Y-98685208D01*
X173946759Y-98685202D01*
X174064133Y-98493665D01*
X174116781Y-98446034D01*
X174171566Y-98433500D01*
X174891233Y-98433500D01*
X174902416Y-98434027D01*
X174909909Y-98435702D01*
X174917835Y-98435453D01*
X174917836Y-98435453D01*
X174977986Y-98433562D01*
X174981945Y-98433500D01*
X175009856Y-98433500D01*
X175013791Y-98433003D01*
X175013856Y-98432995D01*
X175025693Y-98432062D01*
X175057951Y-98431048D01*
X175061970Y-98430922D01*
X175069889Y-98430673D01*
X175089343Y-98425021D01*
X175108700Y-98421013D01*
X175120930Y-98419468D01*
X175120931Y-98419468D01*
X175128797Y-98418474D01*
X175136168Y-98415555D01*
X175136170Y-98415555D01*
X175169912Y-98402196D01*
X175181142Y-98398351D01*
X175215983Y-98388229D01*
X175215984Y-98388229D01*
X175223593Y-98386018D01*
X175230412Y-98381985D01*
X175230417Y-98381983D01*
X175241028Y-98375707D01*
X175258776Y-98367012D01*
X175277617Y-98359552D01*
X175313387Y-98333564D01*
X175323307Y-98327048D01*
X175354535Y-98308580D01*
X175354538Y-98308578D01*
X175361362Y-98304542D01*
X175375683Y-98290221D01*
X175390717Y-98277380D01*
X175400694Y-98270131D01*
X175407107Y-98265472D01*
X175435298Y-98231395D01*
X175443288Y-98222616D01*
X176295905Y-97369999D01*
X176358217Y-97335973D01*
X176429032Y-97341038D01*
X176474095Y-97369999D01*
X178989778Y-99885682D01*
X179023804Y-99947994D01*
X179022100Y-100008448D01*
X179000989Y-100084570D01*
X178977251Y-100306695D01*
X178990110Y-100529715D01*
X178991247Y-100534761D01*
X178991248Y-100534767D01*
X179015304Y-100641508D01*
X179039222Y-100747639D01*
X179123266Y-100954616D01*
X179239987Y-101145088D01*
X179386250Y-101313938D01*
X179558126Y-101456632D01*
X179610090Y-101486997D01*
X179631955Y-101499774D01*
X179680679Y-101551412D01*
X179693750Y-101621195D01*
X179667019Y-101686967D01*
X179626562Y-101720327D01*
X179618457Y-101724546D01*
X179609738Y-101730036D01*
X179439433Y-101857905D01*
X179431726Y-101864748D01*
X179284590Y-102018717D01*
X179278104Y-102026727D01*
X179158098Y-102202649D01*
X179153000Y-102211623D01*
X179063338Y-102404783D01*
X179059775Y-102414470D01*
X179004389Y-102614183D01*
X179005912Y-102622607D01*
X179018292Y-102626000D01*
X180468000Y-102626000D01*
X180536121Y-102646002D01*
X180582614Y-102699658D01*
X180594000Y-102752000D01*
X180594000Y-104198517D01*
X180598064Y-104212359D01*
X180611478Y-104214393D01*
X180618184Y-104213534D01*
X180628262Y-104211392D01*
X180832255Y-104150191D01*
X180841842Y-104146433D01*
X181033095Y-104052739D01*
X181041945Y-104047464D01*
X181216541Y-103922926D01*
X181283614Y-103899652D01*
X181352623Y-103916336D01*
X181378804Y-103936409D01*
X181639373Y-104196979D01*
X181889652Y-104447258D01*
X181897186Y-104455537D01*
X181901299Y-104462018D01*
X181922394Y-104481827D01*
X181950950Y-104508643D01*
X181953792Y-104511398D01*
X181973529Y-104531135D01*
X181976726Y-104533615D01*
X181985746Y-104541318D01*
X182017978Y-104571586D01*
X182024924Y-104575405D01*
X182024927Y-104575407D01*
X182035733Y-104581348D01*
X182052252Y-104592199D01*
X182068258Y-104604614D01*
X182075527Y-104607759D01*
X182075531Y-104607762D01*
X182108836Y-104622174D01*
X182119486Y-104627391D01*
X182158239Y-104648695D01*
X182176794Y-104653459D01*
X182237800Y-104689774D01*
X182269488Y-104753306D01*
X182261797Y-104823885D01*
X182217170Y-104879102D01*
X182145458Y-104901500D01*
X174286273Y-104901500D01*
X174218152Y-104881498D01*
X174171659Y-104827842D01*
X174161555Y-104757568D01*
X174163754Y-104746085D01*
X174212885Y-104541443D01*
X174214428Y-104531699D01*
X174232275Y-104304930D01*
X174232275Y-104295070D01*
X174214428Y-104068301D01*
X174212885Y-104058554D01*
X174159783Y-103837373D01*
X174156734Y-103827988D01*
X174069687Y-103617837D01*
X174065205Y-103609042D01*
X173962568Y-103441555D01*
X173952110Y-103432093D01*
X173943334Y-103435876D01*
X172809095Y-104570115D01*
X172746783Y-104604141D01*
X172675968Y-104599076D01*
X172630905Y-104570115D01*
X171499710Y-103438920D01*
X171487330Y-103432160D01*
X171479680Y-103437887D01*
X171374795Y-103609042D01*
X171370313Y-103617837D01*
X171283266Y-103827988D01*
X171280217Y-103837373D01*
X171227115Y-104058554D01*
X171225572Y-104068301D01*
X171207725Y-104295070D01*
X171207725Y-104304930D01*
X171225572Y-104531699D01*
X171227117Y-104541455D01*
X171254918Y-104657252D01*
X171251372Y-104728160D01*
X171210053Y-104785894D01*
X171144079Y-104812125D01*
X171073006Y-104797790D01*
X171050749Y-104785894D01*
X171037874Y-104779012D01*
X171017345Y-104765295D01*
X170921124Y-104686329D01*
X170903671Y-104668876D01*
X170824705Y-104572655D01*
X170810987Y-104552124D01*
X170752315Y-104442355D01*
X170742866Y-104419546D01*
X170706733Y-104300432D01*
X170701916Y-104276212D01*
X170692711Y-104182755D01*
X170692607Y-104159151D01*
X170692768Y-104157354D01*
X170693576Y-104152552D01*
X170693729Y-104140000D01*
X170689773Y-104112376D01*
X170688500Y-104094514D01*
X170688500Y-103067890D01*
X171852093Y-103067890D01*
X171855876Y-103076666D01*
X172707188Y-103927978D01*
X172721132Y-103935592D01*
X172722965Y-103935461D01*
X172729580Y-103931210D01*
X173512824Y-103147966D01*
X179008257Y-103147966D01*
X179038565Y-103282446D01*
X179041645Y-103292275D01*
X179121770Y-103489603D01*
X179126413Y-103498794D01*
X179237694Y-103680388D01*
X179243777Y-103688699D01*
X179383213Y-103849667D01*
X179390580Y-103856883D01*
X179554434Y-103992916D01*
X179562881Y-103998831D01*
X179746756Y-104106279D01*
X179756042Y-104110729D01*
X179955001Y-104186703D01*
X179964899Y-104189579D01*
X180068250Y-104210606D01*
X180082299Y-104209410D01*
X180086000Y-104199065D01*
X180086000Y-103152115D01*
X180081525Y-103136876D01*
X180080135Y-103135671D01*
X180072452Y-103134000D01*
X179023225Y-103134000D01*
X179009694Y-103137973D01*
X179008257Y-103147966D01*
X173512824Y-103147966D01*
X173581080Y-103079710D01*
X173587840Y-103067330D01*
X173582113Y-103059680D01*
X173410958Y-102954795D01*
X173402163Y-102950313D01*
X173192012Y-102863266D01*
X173182627Y-102860217D01*
X172961446Y-102807115D01*
X172951699Y-102805572D01*
X172724930Y-102787725D01*
X172715070Y-102787725D01*
X172488301Y-102805572D01*
X172478554Y-102807115D01*
X172257373Y-102860217D01*
X172247988Y-102863266D01*
X172037837Y-102950313D01*
X172029042Y-102954795D01*
X171861555Y-103057432D01*
X171852093Y-103067890D01*
X170688500Y-103067890D01*
X170688500Y-86413250D01*
X170690246Y-86392345D01*
X170692770Y-86377344D01*
X170692770Y-86377341D01*
X170693576Y-86372552D01*
X170693729Y-86360000D01*
X170692788Y-86353429D01*
X170692123Y-86323218D01*
X170701916Y-86223789D01*
X170706733Y-86199568D01*
X170742866Y-86080454D01*
X170752315Y-86057645D01*
X170810987Y-85947876D01*
X170824705Y-85927345D01*
X170903671Y-85831124D01*
X170921124Y-85813671D01*
X171017345Y-85734705D01*
X171037876Y-85720987D01*
X171147645Y-85662315D01*
X171170454Y-85652866D01*
X171289568Y-85616733D01*
X171313789Y-85611916D01*
X171409809Y-85602459D01*
X171425868Y-85602909D01*
X171425877Y-85602200D01*
X171434853Y-85602310D01*
X171443724Y-85603691D01*
X171452626Y-85602527D01*
X171452628Y-85602527D01*
X171469059Y-85600378D01*
X171475286Y-85599564D01*
X171491621Y-85598500D01*
X186640633Y-85598500D01*
X186660018Y-85600000D01*
G37*
%TD.AperFunction*%
%TD*%
M02*
