%TF.GenerationSoftware,KiCad,Pcbnew,(6.0.7)*%
%TF.CreationDate,2023-04-14T11:36:13-05:00*%
%TF.ProjectId,ATtiny_PCB,41547469-6e79-45f5-9043-422e6b696361,rev?*%
%TF.SameCoordinates,Original*%
%TF.FileFunction,Copper,L1,Top*%
%TF.FilePolarity,Positive*%
%FSLAX46Y46*%
G04 Gerber Fmt 4.6, Leading zero omitted, Abs format (unit mm)*
G04 Created by KiCad (PCBNEW (6.0.7)) date 2023-04-14 11:36:13*
%MOMM*%
%LPD*%
G01*
G04 APERTURE LIST*
%TA.AperFunction,NonConductor*%
%ADD10C,0.200000*%
%TD*%
%TA.AperFunction,ComponentPad*%
%ADD11C,2.000000*%
%TD*%
%TA.AperFunction,ComponentPad*%
%ADD12R,1.600000X1.600000*%
%TD*%
%TA.AperFunction,ComponentPad*%
%ADD13O,1.600000X1.600000*%
%TD*%
%TA.AperFunction,ComponentPad*%
%ADD14O,1.700000X1.700000*%
%TD*%
%TA.AperFunction,ComponentPad*%
%ADD15R,1.700000X1.700000*%
%TD*%
G04 APERTURE END LIST*
D10*
X175895000Y-102997000D02*
X177419000Y-102997000D01*
X175895000Y-102997000D02*
X177419000Y-101092000D01*
X175895000Y-101092000D02*
X177419000Y-101092000D01*
X176276000Y-101473000D02*
X176276000Y-99695000D01*
X175387000Y-99695000D02*
X177165000Y-99695000D01*
D11*
%TO.P,SW1,2,2*%
%TO.N,Reset*%
X172720000Y-97800000D03*
%TO.P,SW1,1,1*%
%TO.N,GND*%
X172720000Y-104300000D03*
%TD*%
D12*
%TO.P,U1,1,~{RESET}/PB5*%
%TO.N,Reset*%
X175260000Y-87640000D03*
D13*
%TO.P,U1,2,PB3*%
%TO.N,ExtCLKI*%
X175260000Y-90180000D03*
%TO.P,U1,3,PB4*%
%TO.N,PB4*%
X175260000Y-92720000D03*
%TO.P,U1,4,GND*%
%TO.N,GND*%
X175260000Y-95260000D03*
%TO.P,U1,5,PB0*%
%TO.N,MOSI*%
X182880000Y-95260000D03*
%TO.P,U1,6,PB1*%
%TO.N,MISO*%
X182880000Y-92720000D03*
%TO.P,U1,7,PB2*%
%TO.N,SCK*%
X182880000Y-90180000D03*
%TO.P,U1,8,VCC*%
%TO.N,VCC*%
X182880000Y-87640000D03*
%TD*%
D14*
%TO.P,J3,6,Pin_6*%
%TO.N,GND*%
X180340000Y-102880000D03*
%TO.P,J3,5,Pin_5*%
%TO.N,Reset*%
X180340000Y-100340000D03*
%TO.P,J3,4,Pin_4*%
%TO.N,MOSI*%
X182880000Y-102880000D03*
%TO.P,J3,3,Pin_3*%
%TO.N,SCK*%
X182880000Y-100340000D03*
%TO.P,J3,2,Pin_2*%
%TO.N,VCC*%
X185420000Y-102880000D03*
D15*
%TO.P,J3,1,Pin_1*%
%TO.N,MISO*%
X185420000Y-100340000D03*
%TD*%
%TO.P,J1,1,Pin_1*%
%TO.N,Reset*%
X172720000Y-87640000D03*
D14*
%TO.P,J1,2,Pin_2*%
%TO.N,ExtCLKI*%
X172720000Y-90180000D03*
%TO.P,J1,3,Pin_3*%
%TO.N,PB4*%
X172720000Y-92720000D03*
%TO.P,J1,4,Pin_4*%
%TO.N,GND*%
X172720000Y-95260000D03*
%TD*%
D15*
%TO.P,J2,1,Pin_1*%
%TO.N,VCC*%
X185420000Y-87640000D03*
D14*
%TO.P,J2,2,Pin_2*%
%TO.N,SCK*%
X185420000Y-90180000D03*
%TO.P,J2,3,Pin_3*%
%TO.N,MISO*%
X185420000Y-92720000D03*
%TO.P,J2,4,Pin_4*%
%TO.N,MOSI*%
X185420000Y-95260000D03*
%TD*%
%TA.AperFunction,Conductor*%
%TO.N,GND*%
G36*
X186660018Y-85600000D02*
G01*
X186674852Y-85602310D01*
X186674855Y-85602310D01*
X186683724Y-85603691D01*
X186693659Y-85602392D01*
X186694746Y-85602250D01*
X186723431Y-85601793D01*
X186796741Y-85609013D01*
X186826212Y-85611916D01*
X186850432Y-85616733D01*
X186969546Y-85652866D01*
X186992355Y-85662315D01*
X187102124Y-85720987D01*
X187122655Y-85734705D01*
X187218876Y-85813671D01*
X187236329Y-85831124D01*
X187315295Y-85927345D01*
X187329013Y-85947876D01*
X187387685Y-86057645D01*
X187397134Y-86080454D01*
X187433267Y-86199568D01*
X187438084Y-86223789D01*
X187447541Y-86319809D01*
X187447091Y-86335868D01*
X187447800Y-86335877D01*
X187447690Y-86344853D01*
X187446309Y-86353724D01*
X187447473Y-86362626D01*
X187447473Y-86362628D01*
X187450436Y-86385283D01*
X187451500Y-86401621D01*
X187451500Y-104090633D01*
X187450000Y-104110018D01*
X187449890Y-104110729D01*
X187446309Y-104133724D01*
X187447473Y-104142626D01*
X187447750Y-104144746D01*
X187448207Y-104173431D01*
X187444209Y-104214025D01*
X187438084Y-104276212D01*
X187433267Y-104300432D01*
X187397134Y-104419546D01*
X187387685Y-104442355D01*
X187329013Y-104552124D01*
X187315295Y-104572655D01*
X187236329Y-104668876D01*
X187218876Y-104686329D01*
X187122655Y-104765295D01*
X187102124Y-104779013D01*
X186992355Y-104837685D01*
X186969546Y-104847134D01*
X186850432Y-104883267D01*
X186826211Y-104888084D01*
X186730191Y-104897541D01*
X186714132Y-104897091D01*
X186714123Y-104897800D01*
X186705147Y-104897690D01*
X186696276Y-104896309D01*
X186687374Y-104897473D01*
X186687372Y-104897473D01*
X186674856Y-104899110D01*
X186664714Y-104900436D01*
X186648379Y-104901500D01*
X174286273Y-104901500D01*
X174218152Y-104881498D01*
X174171659Y-104827842D01*
X174161555Y-104757568D01*
X174163754Y-104746085D01*
X174212885Y-104541443D01*
X174214428Y-104531699D01*
X174232275Y-104304930D01*
X174232275Y-104295070D01*
X174214428Y-104068301D01*
X174212885Y-104058554D01*
X174159783Y-103837373D01*
X174156734Y-103827988D01*
X174069687Y-103617837D01*
X174065205Y-103609042D01*
X173962568Y-103441555D01*
X173952110Y-103432093D01*
X173943334Y-103435876D01*
X172809095Y-104570115D01*
X172746783Y-104604141D01*
X172675968Y-104599076D01*
X172630905Y-104570115D01*
X171499710Y-103438920D01*
X171487330Y-103432160D01*
X171479680Y-103437887D01*
X171374795Y-103609042D01*
X171370313Y-103617837D01*
X171283266Y-103827988D01*
X171280217Y-103837373D01*
X171227115Y-104058554D01*
X171225572Y-104068301D01*
X171207725Y-104295070D01*
X171207725Y-104304930D01*
X171225572Y-104531699D01*
X171227117Y-104541455D01*
X171254918Y-104657252D01*
X171251372Y-104728160D01*
X171210053Y-104785894D01*
X171144079Y-104812125D01*
X171073006Y-104797790D01*
X171050749Y-104785894D01*
X171037874Y-104779012D01*
X171017345Y-104765295D01*
X170921124Y-104686329D01*
X170903671Y-104668876D01*
X170824705Y-104572655D01*
X170810987Y-104552124D01*
X170752315Y-104442355D01*
X170742866Y-104419546D01*
X170706733Y-104300432D01*
X170701916Y-104276212D01*
X170692711Y-104182755D01*
X170692607Y-104159151D01*
X170692768Y-104157354D01*
X170693576Y-104152552D01*
X170693729Y-104140000D01*
X170689773Y-104112376D01*
X170688500Y-104094514D01*
X170688500Y-103067890D01*
X171852093Y-103067890D01*
X171855876Y-103076666D01*
X172707188Y-103927978D01*
X172721132Y-103935592D01*
X172722965Y-103935461D01*
X172729580Y-103931210D01*
X173581080Y-103079710D01*
X173587840Y-103067330D01*
X173582113Y-103059680D01*
X173410958Y-102954795D01*
X173402163Y-102950313D01*
X173192012Y-102863266D01*
X173182627Y-102860217D01*
X172961446Y-102807115D01*
X172951699Y-102805572D01*
X172724930Y-102787725D01*
X172715070Y-102787725D01*
X172488301Y-102805572D01*
X172478554Y-102807115D01*
X172257373Y-102860217D01*
X172247988Y-102863266D01*
X172037837Y-102950313D01*
X172029042Y-102954795D01*
X171861555Y-103057432D01*
X171852093Y-103067890D01*
X170688500Y-103067890D01*
X170688500Y-99695000D01*
X174773249Y-99695000D01*
X174794162Y-99853850D01*
X174855476Y-100001875D01*
X174953013Y-100128987D01*
X175080125Y-100226524D01*
X175228150Y-100287838D01*
X175347115Y-100303500D01*
X175541500Y-100303500D01*
X175609621Y-100323502D01*
X175656114Y-100377158D01*
X175667500Y-100429500D01*
X175667500Y-100443407D01*
X175647498Y-100511528D01*
X175601199Y-100550224D01*
X175602909Y-100553185D01*
X175595756Y-100557315D01*
X175588125Y-100560476D01*
X175525581Y-100608468D01*
X175467566Y-100652984D01*
X175467563Y-100652987D01*
X175461013Y-100658013D01*
X175363476Y-100785124D01*
X175360317Y-100792750D01*
X175360316Y-100792752D01*
X175305322Y-100925520D01*
X175305321Y-100925523D01*
X175302162Y-100933150D01*
X175281249Y-101092000D01*
X175302162Y-101250850D01*
X175363476Y-101398875D01*
X175461013Y-101525987D01*
X175588125Y-101623524D01*
X175595752Y-101626683D01*
X175595757Y-101626686D01*
X175650463Y-101649345D01*
X175705744Y-101693892D01*
X175718655Y-101717537D01*
X175741314Y-101772243D01*
X175741317Y-101772248D01*
X175744476Y-101779875D01*
X175802291Y-101855221D01*
X175826861Y-101887240D01*
X175842013Y-101906987D01*
X175844931Y-101909226D01*
X175877938Y-101969679D01*
X175872870Y-102040494D01*
X175853206Y-102075168D01*
X175587482Y-102407322D01*
X175468856Y-102555605D01*
X175464883Y-102560044D01*
X175461013Y-102563013D01*
X175455983Y-102569568D01*
X175455982Y-102569569D01*
X175416767Y-102620674D01*
X175415203Y-102622670D01*
X175394925Y-102648018D01*
X175392792Y-102651545D01*
X175391531Y-102653352D01*
X175388192Y-102657914D01*
X175363476Y-102690124D01*
X175360316Y-102697754D01*
X175360315Y-102697755D01*
X175354103Y-102712753D01*
X175345515Y-102729733D01*
X175332838Y-102750698D01*
X175330540Y-102758628D01*
X175330538Y-102758633D01*
X175321864Y-102788571D01*
X175317250Y-102801724D01*
X175302162Y-102838150D01*
X175301084Y-102846338D01*
X175301084Y-102846339D01*
X175298964Y-102862439D01*
X175295064Y-102881057D01*
X175290545Y-102896653D01*
X175290544Y-102896657D01*
X175288246Y-102904589D01*
X175288079Y-102912848D01*
X175287448Y-102944007D01*
X175286396Y-102957903D01*
X175281249Y-102997000D01*
X175282327Y-103005186D01*
X175284448Y-103021294D01*
X175285500Y-103040292D01*
X175285004Y-103064777D01*
X175286981Y-103072801D01*
X175294435Y-103103059D01*
X175297015Y-103116753D01*
X175302162Y-103155850D01*
X175305320Y-103163473D01*
X175305321Y-103163478D01*
X175311538Y-103178486D01*
X175317469Y-103196555D01*
X175323330Y-103220347D01*
X175327314Y-103227583D01*
X175327315Y-103227584D01*
X175342351Y-103254890D01*
X175348387Y-103267447D01*
X175363476Y-103303875D01*
X175378390Y-103323311D01*
X175388795Y-103339230D01*
X175396632Y-103353462D01*
X175396634Y-103353465D01*
X175400616Y-103360696D01*
X175427928Y-103389137D01*
X175437009Y-103399704D01*
X175461013Y-103430987D01*
X175467559Y-103436010D01*
X175480445Y-103445898D01*
X175494619Y-103458585D01*
X175505868Y-103470298D01*
X175511593Y-103476259D01*
X175541952Y-103494616D01*
X175545337Y-103496663D01*
X175556834Y-103504513D01*
X175588125Y-103528524D01*
X175595750Y-103531682D01*
X175595753Y-103531684D01*
X175610758Y-103537899D01*
X175627736Y-103546486D01*
X175648698Y-103559162D01*
X175656629Y-103561460D01*
X175686578Y-103570138D01*
X175699730Y-103574752D01*
X175736150Y-103589838D01*
X175754011Y-103592190D01*
X175760439Y-103593036D01*
X175779057Y-103596936D01*
X175794653Y-103601455D01*
X175794657Y-103601456D01*
X175802589Y-103603754D01*
X175843157Y-103604575D01*
X175848849Y-103604819D01*
X175851026Y-103604962D01*
X175855115Y-103605500D01*
X175887594Y-103605500D01*
X175890144Y-103605526D01*
X175954517Y-103606829D01*
X175954518Y-103606829D01*
X175962777Y-103606996D01*
X175967513Y-103605829D01*
X175973459Y-103605500D01*
X177458885Y-103605500D01*
X177465912Y-103604575D01*
X177569662Y-103590916D01*
X177577850Y-103589838D01*
X177725875Y-103528524D01*
X177842649Y-103438920D01*
X177846434Y-103436016D01*
X177846437Y-103436013D01*
X177852987Y-103430987D01*
X177902355Y-103366651D01*
X177945498Y-103310426D01*
X177950524Y-103303876D01*
X177953686Y-103296243D01*
X178008678Y-103163480D01*
X178008679Y-103163477D01*
X178011838Y-103155850D01*
X178012876Y-103147966D01*
X179008257Y-103147966D01*
X179038565Y-103282446D01*
X179041645Y-103292275D01*
X179121770Y-103489603D01*
X179126413Y-103498794D01*
X179237694Y-103680388D01*
X179243777Y-103688699D01*
X179383213Y-103849667D01*
X179390580Y-103856883D01*
X179554434Y-103992916D01*
X179562881Y-103998831D01*
X179746756Y-104106279D01*
X179756042Y-104110729D01*
X179955001Y-104186703D01*
X179964899Y-104189579D01*
X180068250Y-104210606D01*
X180082299Y-104209410D01*
X180086000Y-104199065D01*
X180086000Y-103152115D01*
X180081525Y-103136876D01*
X180080135Y-103135671D01*
X180072452Y-103134000D01*
X179023225Y-103134000D01*
X179009694Y-103137973D01*
X179008257Y-103147966D01*
X178012876Y-103147966D01*
X178032751Y-102997000D01*
X178011838Y-102838150D01*
X177950524Y-102690125D01*
X177852987Y-102563013D01*
X177725875Y-102465476D01*
X177577850Y-102404162D01*
X177569662Y-102403084D01*
X177462972Y-102389038D01*
X177462971Y-102389038D01*
X177458885Y-102388500D01*
X177423219Y-102388500D01*
X177355098Y-102368498D01*
X177308605Y-102314842D01*
X177298501Y-102244568D01*
X177324828Y-102183790D01*
X177845147Y-101533390D01*
X177849116Y-101528957D01*
X177852987Y-101525987D01*
X177858010Y-101519441D01*
X177858013Y-101519438D01*
X177897256Y-101468296D01*
X177898829Y-101466288D01*
X177916492Y-101444209D01*
X177919074Y-101440982D01*
X177921214Y-101437443D01*
X177922438Y-101435689D01*
X177925804Y-101431091D01*
X177945498Y-101405426D01*
X177950524Y-101398876D01*
X177959899Y-101376242D01*
X177968487Y-101359262D01*
X177976888Y-101345368D01*
X177981161Y-101338302D01*
X177992134Y-101300435D01*
X177996746Y-101287287D01*
X178008676Y-101258484D01*
X178008676Y-101258483D01*
X178011838Y-101250850D01*
X178015036Y-101226563D01*
X178018936Y-101207941D01*
X178023456Y-101192345D01*
X178023457Y-101192340D01*
X178025754Y-101184412D01*
X178026552Y-101144993D01*
X178027604Y-101131097D01*
X178031673Y-101100189D01*
X178031673Y-101100188D01*
X178032751Y-101092000D01*
X178029552Y-101067701D01*
X178028500Y-101048705D01*
X178028829Y-101032477D01*
X178028829Y-101032476D01*
X178028996Y-101024223D01*
X178026760Y-101015144D01*
X178019567Y-100985948D01*
X178016987Y-100972257D01*
X178012916Y-100941335D01*
X178012915Y-100941333D01*
X178011838Y-100933150D01*
X178002463Y-100910515D01*
X177996530Y-100892439D01*
X177992646Y-100876673D01*
X177992645Y-100876671D01*
X177990670Y-100868654D01*
X177971646Y-100834106D01*
X177965616Y-100821559D01*
X177953686Y-100792758D01*
X177953683Y-100792752D01*
X177950524Y-100785125D01*
X177935610Y-100765689D01*
X177925202Y-100749765D01*
X177917368Y-100735538D01*
X177917366Y-100735536D01*
X177913384Y-100728304D01*
X177886071Y-100699862D01*
X177876991Y-100689295D01*
X177858010Y-100664559D01*
X177852987Y-100658013D01*
X177833555Y-100643102D01*
X177819381Y-100630415D01*
X177808128Y-100618697D01*
X177808123Y-100618693D01*
X177802407Y-100612741D01*
X177791910Y-100606394D01*
X177768662Y-100592336D01*
X177757155Y-100584478D01*
X177747602Y-100577148D01*
X177725875Y-100560476D01*
X177714711Y-100555852D01*
X177703236Y-100551098D01*
X177686262Y-100542513D01*
X177665302Y-100529839D01*
X177657371Y-100527541D01*
X177657369Y-100527540D01*
X177627435Y-100518866D01*
X177614287Y-100514254D01*
X177585484Y-100502324D01*
X177585483Y-100502324D01*
X177577850Y-100499162D01*
X177569620Y-100498078D01*
X177553561Y-100495964D01*
X177534944Y-100492064D01*
X177519347Y-100487545D01*
X177519343Y-100487544D01*
X177511411Y-100485246D01*
X177493035Y-100484874D01*
X177479649Y-100484603D01*
X177411947Y-100463226D01*
X177366549Y-100408641D01*
X177357870Y-100338177D01*
X177373025Y-100306695D01*
X178977251Y-100306695D01*
X178977548Y-100311848D01*
X178977548Y-100311851D01*
X178987939Y-100492064D01*
X178990110Y-100529715D01*
X178991247Y-100534761D01*
X178991248Y-100534767D01*
X179003409Y-100588727D01*
X179039222Y-100747639D01*
X179077461Y-100841811D01*
X179114550Y-100933150D01*
X179123266Y-100954616D01*
X179160685Y-101015678D01*
X179237291Y-101140688D01*
X179239987Y-101145088D01*
X179386250Y-101313938D01*
X179558126Y-101456632D01*
X179576377Y-101467297D01*
X179631955Y-101499774D01*
X179680679Y-101551412D01*
X179693750Y-101621195D01*
X179667019Y-101686967D01*
X179626562Y-101720327D01*
X179618457Y-101724546D01*
X179609738Y-101730036D01*
X179439433Y-101857905D01*
X179431726Y-101864748D01*
X179284590Y-102018717D01*
X179278104Y-102026727D01*
X179158098Y-102202649D01*
X179153000Y-102211623D01*
X179063338Y-102404783D01*
X179059775Y-102414470D01*
X179004389Y-102614183D01*
X179005912Y-102622607D01*
X179018292Y-102626000D01*
X180468000Y-102626000D01*
X180536121Y-102646002D01*
X180582614Y-102699658D01*
X180594000Y-102752000D01*
X180594000Y-104198517D01*
X180598064Y-104212359D01*
X180611478Y-104214393D01*
X180618184Y-104213534D01*
X180628262Y-104211392D01*
X180832255Y-104150191D01*
X180841842Y-104146433D01*
X181033095Y-104052739D01*
X181041945Y-104047464D01*
X181215328Y-103923792D01*
X181223200Y-103917139D01*
X181374052Y-103766812D01*
X181380730Y-103758965D01*
X181508022Y-103581819D01*
X181509279Y-103582722D01*
X181556373Y-103539362D01*
X181626311Y-103527145D01*
X181691751Y-103554678D01*
X181719579Y-103586511D01*
X181731687Y-103606270D01*
X181779987Y-103685088D01*
X181926250Y-103853938D01*
X182098126Y-103996632D01*
X182291000Y-104109338D01*
X182295825Y-104111180D01*
X182295826Y-104111181D01*
X182331627Y-104124852D01*
X182499692Y-104189030D01*
X182504760Y-104190061D01*
X182504763Y-104190062D01*
X182599862Y-104209410D01*
X182718597Y-104233567D01*
X182723772Y-104233757D01*
X182723774Y-104233757D01*
X182936673Y-104241564D01*
X182936677Y-104241564D01*
X182941837Y-104241753D01*
X182946957Y-104241097D01*
X182946959Y-104241097D01*
X183158288Y-104214025D01*
X183158289Y-104214025D01*
X183163416Y-104213368D01*
X183168366Y-104211883D01*
X183372429Y-104150661D01*
X183372434Y-104150659D01*
X183377384Y-104149174D01*
X183577994Y-104050896D01*
X183759860Y-103921173D01*
X183918096Y-103763489D01*
X184048453Y-103582077D01*
X184049776Y-103583028D01*
X184096645Y-103539857D01*
X184166580Y-103527625D01*
X184232026Y-103555144D01*
X184259875Y-103586994D01*
X184271687Y-103606270D01*
X184319987Y-103685088D01*
X184466250Y-103853938D01*
X184638126Y-103996632D01*
X184831000Y-104109338D01*
X184835825Y-104111180D01*
X184835826Y-104111181D01*
X184871627Y-104124852D01*
X185039692Y-104189030D01*
X185044760Y-104190061D01*
X185044763Y-104190062D01*
X185139862Y-104209410D01*
X185258597Y-104233567D01*
X185263772Y-104233757D01*
X185263774Y-104233757D01*
X185476673Y-104241564D01*
X185476677Y-104241564D01*
X185481837Y-104241753D01*
X185486957Y-104241097D01*
X185486959Y-104241097D01*
X185698288Y-104214025D01*
X185698289Y-104214025D01*
X185703416Y-104213368D01*
X185708366Y-104211883D01*
X185912429Y-104150661D01*
X185912434Y-104150659D01*
X185917384Y-104149174D01*
X186117994Y-104050896D01*
X186299860Y-103921173D01*
X186458096Y-103763489D01*
X186588453Y-103582077D01*
X186593395Y-103572079D01*
X186685136Y-103386453D01*
X186685137Y-103386451D01*
X186687430Y-103381811D01*
X186752370Y-103168069D01*
X186781529Y-102946590D01*
X186781611Y-102943240D01*
X186783074Y-102883365D01*
X186783074Y-102883361D01*
X186783156Y-102880000D01*
X186764852Y-102657361D01*
X186710431Y-102440702D01*
X186621354Y-102235840D01*
X186500014Y-102048277D01*
X186480405Y-102026727D01*
X186352798Y-101886488D01*
X186321746Y-101822642D01*
X186330141Y-101752143D01*
X186375317Y-101697375D01*
X186401761Y-101683706D01*
X186508297Y-101643767D01*
X186516705Y-101640615D01*
X186633261Y-101553261D01*
X186720615Y-101436705D01*
X186771745Y-101300316D01*
X186778500Y-101238134D01*
X186778500Y-99441866D01*
X186771745Y-99379684D01*
X186720615Y-99243295D01*
X186633261Y-99126739D01*
X186516705Y-99039385D01*
X186380316Y-98988255D01*
X186318134Y-98981500D01*
X184521866Y-98981500D01*
X184459684Y-98988255D01*
X184323295Y-99039385D01*
X184206739Y-99126739D01*
X184119385Y-99243295D01*
X184116233Y-99251703D01*
X184074919Y-99361907D01*
X184032277Y-99418671D01*
X183965716Y-99443371D01*
X183896367Y-99428163D01*
X183863743Y-99402476D01*
X183813151Y-99346875D01*
X183813142Y-99346866D01*
X183809670Y-99343051D01*
X183805619Y-99339852D01*
X183805615Y-99339848D01*
X183638414Y-99207800D01*
X183638410Y-99207798D01*
X183634359Y-99204598D01*
X183438789Y-99096638D01*
X183433920Y-99094914D01*
X183433916Y-99094912D01*
X183233087Y-99023795D01*
X183233083Y-99023794D01*
X183228212Y-99022069D01*
X183223119Y-99021162D01*
X183223116Y-99021161D01*
X183013373Y-98983800D01*
X183013367Y-98983799D01*
X183008284Y-98982894D01*
X182934452Y-98981992D01*
X182790081Y-98980228D01*
X182790079Y-98980228D01*
X182784911Y-98980165D01*
X182564091Y-99013955D01*
X182351756Y-99083357D01*
X182153607Y-99186507D01*
X182149474Y-99189610D01*
X182149471Y-99189612D01*
X181984914Y-99313165D01*
X181974965Y-99320635D01*
X181935525Y-99361907D01*
X181881280Y-99418671D01*
X181820629Y-99482138D01*
X181713201Y-99639621D01*
X181658293Y-99684621D01*
X181587768Y-99692792D01*
X181524021Y-99661538D01*
X181503324Y-99637054D01*
X181422822Y-99512617D01*
X181422820Y-99512614D01*
X181420014Y-99508277D01*
X181269670Y-99343051D01*
X181265619Y-99339852D01*
X181265615Y-99339848D01*
X181098414Y-99207800D01*
X181098410Y-99207798D01*
X181094359Y-99204598D01*
X180898789Y-99096638D01*
X180893920Y-99094914D01*
X180893916Y-99094912D01*
X180693087Y-99023795D01*
X180693083Y-99023794D01*
X180688212Y-99022069D01*
X180683119Y-99021162D01*
X180683116Y-99021161D01*
X180473373Y-98983800D01*
X180473367Y-98983799D01*
X180468284Y-98982894D01*
X180394452Y-98981992D01*
X180250081Y-98980228D01*
X180250079Y-98980228D01*
X180244911Y-98980165D01*
X180024091Y-99013955D01*
X179811756Y-99083357D01*
X179613607Y-99186507D01*
X179609474Y-99189610D01*
X179609471Y-99189612D01*
X179444914Y-99313165D01*
X179434965Y-99320635D01*
X179395525Y-99361907D01*
X179341280Y-99418671D01*
X179280629Y-99482138D01*
X179277720Y-99486403D01*
X179277714Y-99486411D01*
X179238199Y-99544338D01*
X179154743Y-99666680D01*
X179137797Y-99703188D01*
X179064321Y-99861479D01*
X179060688Y-99869305D01*
X179000989Y-100084570D01*
X178977251Y-100306695D01*
X177373025Y-100306695D01*
X177388664Y-100274206D01*
X177433980Y-100242221D01*
X177471875Y-100226524D01*
X177535431Y-100177756D01*
X177592434Y-100134016D01*
X177592437Y-100134013D01*
X177598987Y-100128987D01*
X177696524Y-100001876D01*
X177749369Y-99874297D01*
X177754678Y-99861480D01*
X177754679Y-99861477D01*
X177757838Y-99853850D01*
X177778751Y-99695000D01*
X177757838Y-99536150D01*
X177696524Y-99388125D01*
X177598987Y-99261013D01*
X177471875Y-99163476D01*
X177323850Y-99102162D01*
X177204885Y-99086500D01*
X176324143Y-99086500D01*
X176307697Y-99085422D01*
X176284188Y-99082327D01*
X176276000Y-99081249D01*
X176267812Y-99082327D01*
X176244303Y-99085422D01*
X176227857Y-99086500D01*
X175347115Y-99086500D01*
X175228150Y-99102162D01*
X175080125Y-99163476D01*
X175029788Y-99202101D01*
X174959566Y-99255984D01*
X174959563Y-99255987D01*
X174953013Y-99261013D01*
X174947987Y-99267563D01*
X174947986Y-99267564D01*
X174892520Y-99339848D01*
X174855476Y-99388124D01*
X174852317Y-99395750D01*
X174852316Y-99395752D01*
X174803910Y-99512617D01*
X174794162Y-99536150D01*
X174773249Y-99695000D01*
X170688500Y-99695000D01*
X170688500Y-97800000D01*
X171206835Y-97800000D01*
X171225465Y-98036711D01*
X171280895Y-98267594D01*
X171371760Y-98486963D01*
X171374346Y-98491183D01*
X171493241Y-98685202D01*
X171493245Y-98685208D01*
X171495824Y-98689416D01*
X171650031Y-98869969D01*
X171830584Y-99024176D01*
X171834792Y-99026755D01*
X171834798Y-99026759D01*
X171989170Y-99121358D01*
X172033037Y-99148240D01*
X172037607Y-99150133D01*
X172037611Y-99150135D01*
X172245173Y-99236109D01*
X172252406Y-99239105D01*
X172304881Y-99251703D01*
X172478476Y-99293380D01*
X172478482Y-99293381D01*
X172483289Y-99294535D01*
X172720000Y-99313165D01*
X172956711Y-99294535D01*
X172961518Y-99293381D01*
X172961524Y-99293380D01*
X173135119Y-99251703D01*
X173187594Y-99239105D01*
X173194827Y-99236109D01*
X173402389Y-99150135D01*
X173402393Y-99150133D01*
X173406963Y-99148240D01*
X173450830Y-99121358D01*
X173605202Y-99026759D01*
X173605208Y-99026755D01*
X173609416Y-99024176D01*
X173789969Y-98869969D01*
X173944176Y-98689416D01*
X173946755Y-98685208D01*
X173946759Y-98685202D01*
X174065654Y-98491183D01*
X174068240Y-98486963D01*
X174159105Y-98267594D01*
X174214535Y-98036711D01*
X174233165Y-97800000D01*
X174214535Y-97563289D01*
X174159105Y-97332406D01*
X174068240Y-97113037D01*
X174065654Y-97108817D01*
X173946759Y-96914798D01*
X173946755Y-96914792D01*
X173944176Y-96910584D01*
X173789969Y-96730031D01*
X173609416Y-96575824D01*
X173559013Y-96544937D01*
X173511382Y-96492289D01*
X173499775Y-96422248D01*
X173527878Y-96357050D01*
X173551680Y-96334925D01*
X173595328Y-96303792D01*
X173603200Y-96297139D01*
X173754052Y-96146812D01*
X173760730Y-96138965D01*
X173885003Y-95966020D01*
X173890310Y-95957189D01*
X173904344Y-95928792D01*
X173952457Y-95876585D01*
X174021158Y-95858677D01*
X174088635Y-95880755D01*
X174122169Y-95917018D01*
X174122912Y-95916498D01*
X174251028Y-96099467D01*
X174258084Y-96107875D01*
X174412125Y-96261916D01*
X174420533Y-96268972D01*
X174598993Y-96393931D01*
X174608489Y-96399414D01*
X174805947Y-96491490D01*
X174816239Y-96495236D01*
X174988503Y-96541394D01*
X175002599Y-96541058D01*
X175006000Y-96533116D01*
X175006000Y-96527967D01*
X175514000Y-96527967D01*
X175517973Y-96541498D01*
X175526522Y-96542727D01*
X175703761Y-96495236D01*
X175714053Y-96491490D01*
X175911511Y-96399414D01*
X175921007Y-96393931D01*
X176099467Y-96268972D01*
X176107875Y-96261916D01*
X176261916Y-96107875D01*
X176268972Y-96099467D01*
X176393931Y-95921007D01*
X176399414Y-95911511D01*
X176491490Y-95714053D01*
X176495236Y-95703761D01*
X176541394Y-95531497D01*
X176541058Y-95517401D01*
X176533116Y-95514000D01*
X175532115Y-95514000D01*
X175516876Y-95518475D01*
X175515671Y-95519865D01*
X175514000Y-95527548D01*
X175514000Y-96527967D01*
X175006000Y-96527967D01*
X175006000Y-95532115D01*
X175001525Y-95516876D01*
X175000135Y-95515671D01*
X174992452Y-95514000D01*
X171403225Y-95514000D01*
X171389694Y-95517973D01*
X171388257Y-95527966D01*
X171418565Y-95662446D01*
X171421645Y-95672275D01*
X171501770Y-95869603D01*
X171506413Y-95878794D01*
X171617694Y-96060388D01*
X171623777Y-96068699D01*
X171763213Y-96229667D01*
X171770580Y-96236882D01*
X171895535Y-96340622D01*
X171935170Y-96399525D01*
X171936668Y-96470505D01*
X171899553Y-96531028D01*
X171880886Y-96544998D01*
X171835161Y-96573019D01*
X171830584Y-96575824D01*
X171650031Y-96730031D01*
X171495824Y-96910584D01*
X171493245Y-96914792D01*
X171493241Y-96914798D01*
X171374346Y-97108817D01*
X171371760Y-97113037D01*
X171280895Y-97332406D01*
X171225465Y-97563289D01*
X171206835Y-97800000D01*
X170688500Y-97800000D01*
X170688500Y-95260000D01*
X181566502Y-95260000D01*
X181586457Y-95488087D01*
X181587881Y-95493400D01*
X181587881Y-95493402D01*
X181601155Y-95542939D01*
X181645716Y-95709243D01*
X181648039Y-95714224D01*
X181648039Y-95714225D01*
X181740151Y-95911762D01*
X181740154Y-95911767D01*
X181742477Y-95916749D01*
X181770968Y-95957438D01*
X181849078Y-96068990D01*
X181873802Y-96104300D01*
X182035700Y-96266198D01*
X182040208Y-96269355D01*
X182040211Y-96269357D01*
X182089931Y-96304171D01*
X182223251Y-96397523D01*
X182228233Y-96399846D01*
X182228238Y-96399849D01*
X182424765Y-96491490D01*
X182430757Y-96494284D01*
X182436065Y-96495706D01*
X182436067Y-96495707D01*
X182646598Y-96552119D01*
X182646600Y-96552119D01*
X182651913Y-96553543D01*
X182880000Y-96573498D01*
X183108087Y-96553543D01*
X183113400Y-96552119D01*
X183113402Y-96552119D01*
X183323933Y-96495707D01*
X183323935Y-96495706D01*
X183329243Y-96494284D01*
X183335235Y-96491490D01*
X183531762Y-96399849D01*
X183531767Y-96399846D01*
X183536749Y-96397523D01*
X183670069Y-96304171D01*
X183719789Y-96269357D01*
X183719792Y-96269355D01*
X183724300Y-96266198D01*
X183886198Y-96104300D01*
X183910923Y-96068990D01*
X184017523Y-95916749D01*
X184018613Y-95917512D01*
X184065360Y-95872942D01*
X184135073Y-95859507D01*
X184200984Y-95885895D01*
X184230527Y-95919102D01*
X184317287Y-96060684D01*
X184317295Y-96060694D01*
X184319987Y-96065088D01*
X184466250Y-96233938D01*
X184638126Y-96376632D01*
X184831000Y-96489338D01*
X184835825Y-96491180D01*
X184835826Y-96491181D01*
X184908612Y-96518975D01*
X185039692Y-96569030D01*
X185044760Y-96570061D01*
X185044763Y-96570062D01*
X185152017Y-96591883D01*
X185258597Y-96613567D01*
X185263772Y-96613757D01*
X185263774Y-96613757D01*
X185476673Y-96621564D01*
X185476677Y-96621564D01*
X185481837Y-96621753D01*
X185486957Y-96621097D01*
X185486959Y-96621097D01*
X185698288Y-96594025D01*
X185698289Y-96594025D01*
X185703416Y-96593368D01*
X185769646Y-96573498D01*
X185912429Y-96530661D01*
X185912434Y-96530659D01*
X185917384Y-96529174D01*
X186117994Y-96430896D01*
X186299860Y-96301173D01*
X186331788Y-96269357D01*
X186454435Y-96147137D01*
X186458096Y-96143489D01*
X186489498Y-96099789D01*
X186585435Y-95966277D01*
X186588453Y-95962077D01*
X186604904Y-95928792D01*
X186685136Y-95766453D01*
X186685137Y-95766451D01*
X186687430Y-95761811D01*
X186752370Y-95548069D01*
X186781529Y-95326590D01*
X186783156Y-95260000D01*
X186764852Y-95037361D01*
X186710431Y-94820702D01*
X186621354Y-94615840D01*
X186500014Y-94428277D01*
X186349670Y-94263051D01*
X186345619Y-94259852D01*
X186345615Y-94259848D01*
X186178414Y-94127800D01*
X186178410Y-94127798D01*
X186174359Y-94124598D01*
X186133053Y-94101796D01*
X186083084Y-94051364D01*
X186068312Y-93981921D01*
X186093428Y-93915516D01*
X186120780Y-93888909D01*
X186169207Y-93854366D01*
X186299860Y-93761173D01*
X186331788Y-93729357D01*
X186454435Y-93607137D01*
X186458096Y-93603489D01*
X186489498Y-93559789D01*
X186585435Y-93426277D01*
X186588453Y-93422077D01*
X186608628Y-93381257D01*
X186685136Y-93226453D01*
X186685137Y-93226451D01*
X186687430Y-93221811D01*
X186752370Y-93008069D01*
X186781529Y-92786590D01*
X186783156Y-92720000D01*
X186764852Y-92497361D01*
X186710431Y-92280702D01*
X186621354Y-92075840D01*
X186500014Y-91888277D01*
X186349670Y-91723051D01*
X186345619Y-91719852D01*
X186345615Y-91719848D01*
X186178414Y-91587800D01*
X186178410Y-91587798D01*
X186174359Y-91584598D01*
X186133053Y-91561796D01*
X186083084Y-91511364D01*
X186068312Y-91441921D01*
X186093428Y-91375516D01*
X186120780Y-91348909D01*
X186169207Y-91314366D01*
X186299860Y-91221173D01*
X186331788Y-91189357D01*
X186454435Y-91067137D01*
X186458096Y-91063489D01*
X186489498Y-91019789D01*
X186585435Y-90886277D01*
X186588453Y-90882077D01*
X186608628Y-90841257D01*
X186685136Y-90686453D01*
X186685137Y-90686451D01*
X186687430Y-90681811D01*
X186752370Y-90468069D01*
X186781529Y-90246590D01*
X186783156Y-90180000D01*
X186764852Y-89957361D01*
X186710431Y-89740702D01*
X186621354Y-89535840D01*
X186500014Y-89348277D01*
X186485024Y-89331803D01*
X186352798Y-89186488D01*
X186321746Y-89122642D01*
X186330141Y-89052143D01*
X186375317Y-88997375D01*
X186401761Y-88983706D01*
X186508297Y-88943767D01*
X186516705Y-88940615D01*
X186633261Y-88853261D01*
X186720615Y-88736705D01*
X186771745Y-88600316D01*
X186778500Y-88538134D01*
X186778500Y-86741866D01*
X186771745Y-86679684D01*
X186720615Y-86543295D01*
X186633261Y-86426739D01*
X186516705Y-86339385D01*
X186380316Y-86288255D01*
X186318134Y-86281500D01*
X184521866Y-86281500D01*
X184459684Y-86288255D01*
X184323295Y-86339385D01*
X184206739Y-86426739D01*
X184119385Y-86543295D01*
X184068255Y-86679684D01*
X184067402Y-86687540D01*
X184065575Y-86695222D01*
X184064211Y-86694898D01*
X184040210Y-86752664D01*
X183981849Y-86793093D01*
X183910894Y-86795551D01*
X183853091Y-86762593D01*
X183724300Y-86633802D01*
X183719792Y-86630645D01*
X183719789Y-86630643D01*
X183584780Y-86536109D01*
X183536749Y-86502477D01*
X183531767Y-86500154D01*
X183531762Y-86500151D01*
X183334225Y-86408039D01*
X183334224Y-86408039D01*
X183329243Y-86405716D01*
X183323935Y-86404294D01*
X183323933Y-86404293D01*
X183113402Y-86347881D01*
X183113400Y-86347881D01*
X183108087Y-86346457D01*
X182880000Y-86326502D01*
X182651913Y-86346457D01*
X182646600Y-86347881D01*
X182646598Y-86347881D01*
X182436067Y-86404293D01*
X182436065Y-86404294D01*
X182430757Y-86405716D01*
X182425776Y-86408039D01*
X182425775Y-86408039D01*
X182228238Y-86500151D01*
X182228233Y-86500154D01*
X182223251Y-86502477D01*
X182175220Y-86536109D01*
X182040211Y-86630643D01*
X182040208Y-86630645D01*
X182035700Y-86633802D01*
X181873802Y-86795700D01*
X181742477Y-86983251D01*
X181740154Y-86988233D01*
X181740151Y-86988238D01*
X181648039Y-87185775D01*
X181645716Y-87190757D01*
X181586457Y-87411913D01*
X181566502Y-87640000D01*
X181586457Y-87868087D01*
X181645716Y-88089243D01*
X181648039Y-88094224D01*
X181648039Y-88094225D01*
X181740151Y-88291762D01*
X181740154Y-88291767D01*
X181742477Y-88296749D01*
X181873802Y-88484300D01*
X182035700Y-88646198D01*
X182040208Y-88649355D01*
X182040211Y-88649357D01*
X182081542Y-88678297D01*
X182223251Y-88777523D01*
X182228233Y-88779846D01*
X182228238Y-88779849D01*
X182262457Y-88795805D01*
X182315742Y-88842722D01*
X182335203Y-88910999D01*
X182314661Y-88978959D01*
X182262457Y-89024195D01*
X182228238Y-89040151D01*
X182228233Y-89040154D01*
X182223251Y-89042477D01*
X182118389Y-89115902D01*
X182040211Y-89170643D01*
X182040208Y-89170645D01*
X182035700Y-89173802D01*
X181873802Y-89335700D01*
X181870645Y-89340208D01*
X181870643Y-89340211D01*
X181815902Y-89418389D01*
X181742477Y-89523251D01*
X181740154Y-89528233D01*
X181740151Y-89528238D01*
X181657908Y-89704610D01*
X181645716Y-89730757D01*
X181644294Y-89736065D01*
X181644293Y-89736067D01*
X181592407Y-89929707D01*
X181586457Y-89951913D01*
X181566502Y-90180000D01*
X181586457Y-90408087D01*
X181587881Y-90413400D01*
X181587881Y-90413402D01*
X181635851Y-90592425D01*
X181645716Y-90629243D01*
X181648039Y-90634224D01*
X181648039Y-90634225D01*
X181740151Y-90831762D01*
X181740154Y-90831767D01*
X181742477Y-90836749D01*
X181745634Y-90841257D01*
X181849078Y-90988990D01*
X181873802Y-91024300D01*
X182035700Y-91186198D01*
X182040208Y-91189355D01*
X182040211Y-91189357D01*
X182080445Y-91217529D01*
X182223251Y-91317523D01*
X182228233Y-91319846D01*
X182228238Y-91319849D01*
X182262457Y-91335805D01*
X182315742Y-91382722D01*
X182335203Y-91450999D01*
X182314661Y-91518959D01*
X182262457Y-91564195D01*
X182228238Y-91580151D01*
X182228233Y-91580154D01*
X182223251Y-91582477D01*
X182118389Y-91655902D01*
X182040211Y-91710643D01*
X182040208Y-91710645D01*
X182035700Y-91713802D01*
X181873802Y-91875700D01*
X181870645Y-91880208D01*
X181870643Y-91880211D01*
X181815902Y-91958389D01*
X181742477Y-92063251D01*
X181740154Y-92068233D01*
X181740151Y-92068238D01*
X181657908Y-92244610D01*
X181645716Y-92270757D01*
X181644294Y-92276065D01*
X181644293Y-92276067D01*
X181592407Y-92469707D01*
X181586457Y-92491913D01*
X181566502Y-92720000D01*
X181586457Y-92948087D01*
X181587881Y-92953400D01*
X181587881Y-92953402D01*
X181635851Y-93132425D01*
X181645716Y-93169243D01*
X181648039Y-93174224D01*
X181648039Y-93174225D01*
X181740151Y-93371762D01*
X181740154Y-93371767D01*
X181742477Y-93376749D01*
X181745634Y-93381257D01*
X181849078Y-93528990D01*
X181873802Y-93564300D01*
X182035700Y-93726198D01*
X182040208Y-93729355D01*
X182040211Y-93729357D01*
X182080445Y-93757529D01*
X182223251Y-93857523D01*
X182228233Y-93859846D01*
X182228238Y-93859849D01*
X182262457Y-93875805D01*
X182315742Y-93922722D01*
X182335203Y-93990999D01*
X182314661Y-94058959D01*
X182262457Y-94104195D01*
X182228238Y-94120151D01*
X182228233Y-94120154D01*
X182223251Y-94122477D01*
X182118389Y-94195902D01*
X182040211Y-94250643D01*
X182040208Y-94250645D01*
X182035700Y-94253802D01*
X181873802Y-94415700D01*
X181870645Y-94420208D01*
X181870643Y-94420211D01*
X181861740Y-94432926D01*
X181742477Y-94603251D01*
X181740154Y-94608233D01*
X181740151Y-94608238D01*
X181716198Y-94659606D01*
X181645716Y-94810757D01*
X181644294Y-94816065D01*
X181644293Y-94816067D01*
X181593400Y-95006000D01*
X181586457Y-95031913D01*
X181566502Y-95260000D01*
X170688500Y-95260000D01*
X170688500Y-92686695D01*
X171357251Y-92686695D01*
X171357548Y-92691848D01*
X171357548Y-92691851D01*
X171363011Y-92786590D01*
X171370110Y-92909715D01*
X171371247Y-92914761D01*
X171371248Y-92914767D01*
X171379955Y-92953402D01*
X171419222Y-93127639D01*
X171503266Y-93334616D01*
X171619987Y-93525088D01*
X171766250Y-93693938D01*
X171938126Y-93836632D01*
X172005163Y-93875805D01*
X172011955Y-93879774D01*
X172060679Y-93931412D01*
X172073750Y-94001195D01*
X172047019Y-94066967D01*
X172006562Y-94100327D01*
X171998457Y-94104546D01*
X171989738Y-94110036D01*
X171819433Y-94237905D01*
X171811726Y-94244748D01*
X171664590Y-94398717D01*
X171658104Y-94406727D01*
X171538098Y-94582649D01*
X171533000Y-94591623D01*
X171443338Y-94784783D01*
X171439775Y-94794470D01*
X171384389Y-94994183D01*
X171385912Y-95002607D01*
X171398292Y-95006000D01*
X176527967Y-95006000D01*
X176541498Y-95002027D01*
X176542727Y-94993478D01*
X176495236Y-94816239D01*
X176491490Y-94805947D01*
X176399414Y-94608489D01*
X176393931Y-94598993D01*
X176268972Y-94420533D01*
X176261916Y-94412125D01*
X176107875Y-94258084D01*
X176099467Y-94251028D01*
X175921007Y-94126069D01*
X175911511Y-94120586D01*
X175876951Y-94104471D01*
X175823666Y-94057554D01*
X175804205Y-93989277D01*
X175824747Y-93921317D01*
X175876951Y-93876081D01*
X175911762Y-93859849D01*
X175911767Y-93859846D01*
X175916749Y-93857523D01*
X176059555Y-93757529D01*
X176099789Y-93729357D01*
X176099792Y-93729355D01*
X176104300Y-93726198D01*
X176266198Y-93564300D01*
X176290923Y-93528990D01*
X176394366Y-93381257D01*
X176397523Y-93376749D01*
X176399846Y-93371767D01*
X176399849Y-93371762D01*
X176491961Y-93174225D01*
X176491961Y-93174224D01*
X176494284Y-93169243D01*
X176504150Y-93132425D01*
X176552119Y-92953402D01*
X176552119Y-92953400D01*
X176553543Y-92948087D01*
X176573498Y-92720000D01*
X176553543Y-92491913D01*
X176547593Y-92469707D01*
X176495707Y-92276067D01*
X176495706Y-92276065D01*
X176494284Y-92270757D01*
X176482092Y-92244610D01*
X176399849Y-92068238D01*
X176399846Y-92068233D01*
X176397523Y-92063251D01*
X176324098Y-91958389D01*
X176269357Y-91880211D01*
X176269355Y-91880208D01*
X176266198Y-91875700D01*
X176104300Y-91713802D01*
X176099792Y-91710645D01*
X176099789Y-91710643D01*
X176021611Y-91655902D01*
X175916749Y-91582477D01*
X175911767Y-91580154D01*
X175911762Y-91580151D01*
X175877543Y-91564195D01*
X175824258Y-91517278D01*
X175804797Y-91449001D01*
X175825339Y-91381041D01*
X175877543Y-91335805D01*
X175911762Y-91319849D01*
X175911767Y-91319846D01*
X175916749Y-91317523D01*
X176059555Y-91217529D01*
X176099789Y-91189357D01*
X176099792Y-91189355D01*
X176104300Y-91186198D01*
X176266198Y-91024300D01*
X176290923Y-90988990D01*
X176394366Y-90841257D01*
X176397523Y-90836749D01*
X176399846Y-90831767D01*
X176399849Y-90831762D01*
X176491961Y-90634225D01*
X176491961Y-90634224D01*
X176494284Y-90629243D01*
X176504150Y-90592425D01*
X176552119Y-90413402D01*
X176552119Y-90413400D01*
X176553543Y-90408087D01*
X176573498Y-90180000D01*
X176553543Y-89951913D01*
X176547593Y-89929707D01*
X176495707Y-89736067D01*
X176495706Y-89736065D01*
X176494284Y-89730757D01*
X176482092Y-89704610D01*
X176399849Y-89528238D01*
X176399846Y-89528233D01*
X176397523Y-89523251D01*
X176324098Y-89418389D01*
X176269357Y-89340211D01*
X176269355Y-89340208D01*
X176266198Y-89335700D01*
X176104300Y-89173802D01*
X176099789Y-89170643D01*
X176095576Y-89167108D01*
X176096527Y-89165974D01*
X176056529Y-89115929D01*
X176049224Y-89045310D01*
X176081258Y-88981951D01*
X176142462Y-88945970D01*
X176159517Y-88942918D01*
X176170316Y-88941745D01*
X176306705Y-88890615D01*
X176423261Y-88803261D01*
X176510615Y-88686705D01*
X176561745Y-88550316D01*
X176568500Y-88488134D01*
X176568500Y-86791866D01*
X176561745Y-86729684D01*
X176510615Y-86593295D01*
X176423261Y-86476739D01*
X176306705Y-86389385D01*
X176170316Y-86338255D01*
X176108134Y-86331500D01*
X174411866Y-86331500D01*
X174349684Y-86338255D01*
X174213295Y-86389385D01*
X174191505Y-86405716D01*
X174116880Y-86461644D01*
X174050374Y-86486492D01*
X173980991Y-86471439D01*
X173940490Y-86436385D01*
X173938641Y-86433918D01*
X173933261Y-86426739D01*
X173816705Y-86339385D01*
X173680316Y-86288255D01*
X173618134Y-86281500D01*
X171821866Y-86281500D01*
X171759684Y-86288255D01*
X171623295Y-86339385D01*
X171506739Y-86426739D01*
X171419385Y-86543295D01*
X171368255Y-86679684D01*
X171361500Y-86741866D01*
X171361500Y-88538134D01*
X171368255Y-88600316D01*
X171419385Y-88736705D01*
X171506739Y-88853261D01*
X171623295Y-88940615D01*
X171631704Y-88943767D01*
X171631705Y-88943768D01*
X171740451Y-88984535D01*
X171797216Y-89027176D01*
X171821916Y-89093738D01*
X171806709Y-89163087D01*
X171787316Y-89189568D01*
X171660629Y-89322138D01*
X171657715Y-89326410D01*
X171657714Y-89326411D01*
X171648300Y-89340211D01*
X171534743Y-89506680D01*
X171440688Y-89709305D01*
X171380989Y-89924570D01*
X171357251Y-90146695D01*
X171357548Y-90151848D01*
X171357548Y-90151851D01*
X171363011Y-90246590D01*
X171370110Y-90369715D01*
X171371247Y-90374761D01*
X171371248Y-90374767D01*
X171379955Y-90413402D01*
X171419222Y-90587639D01*
X171503266Y-90794616D01*
X171619987Y-90985088D01*
X171766250Y-91153938D01*
X171938126Y-91296632D01*
X172005163Y-91335805D01*
X172011445Y-91339476D01*
X172060169Y-91391114D01*
X172073240Y-91460897D01*
X172046509Y-91526669D01*
X172006055Y-91560027D01*
X171993607Y-91566507D01*
X171989474Y-91569610D01*
X171989471Y-91569612D01*
X171968132Y-91585634D01*
X171814965Y-91700635D01*
X171660629Y-91862138D01*
X171657715Y-91866410D01*
X171657714Y-91866411D01*
X171648300Y-91880211D01*
X171534743Y-92046680D01*
X171440688Y-92249305D01*
X171380989Y-92464570D01*
X171357251Y-92686695D01*
X170688500Y-92686695D01*
X170688500Y-86413250D01*
X170690246Y-86392345D01*
X170692770Y-86377344D01*
X170692770Y-86377341D01*
X170693576Y-86372552D01*
X170693729Y-86360000D01*
X170692788Y-86353429D01*
X170692123Y-86323218D01*
X170701916Y-86223789D01*
X170706733Y-86199568D01*
X170742866Y-86080454D01*
X170752315Y-86057645D01*
X170810987Y-85947876D01*
X170824705Y-85927345D01*
X170903671Y-85831124D01*
X170921124Y-85813671D01*
X171017345Y-85734705D01*
X171037876Y-85720987D01*
X171147645Y-85662315D01*
X171170454Y-85652866D01*
X171289568Y-85616733D01*
X171313789Y-85611916D01*
X171409809Y-85602459D01*
X171425868Y-85602909D01*
X171425877Y-85602200D01*
X171434853Y-85602310D01*
X171443724Y-85603691D01*
X171452626Y-85602527D01*
X171452628Y-85602527D01*
X171469059Y-85600378D01*
X171475286Y-85599564D01*
X171491621Y-85598500D01*
X186640633Y-85598500D01*
X186660018Y-85600000D01*
G37*
%TD.AperFunction*%
%TD*%
M02*
